<?xml version="1.0" encoding="UTF-8"?>
<svg width="40px" height="40px" viewBox="0 0 40 40" version="1.1" xmlns="http://www.w3.org/2000/svg" xmlns:xlink="http://www.w3.org/1999/xlink">
    <title>alogo</title>
    <g id="页面-1" stroke="none" stroke-width="1" fill="none" fill-rule="evenodd">
        <g id="alogo">
            <rect id="矩形" fill="#000000" x="0" y="0" width="40" height="40"></rect>
            <path d="M6,12.4 C6,10.15979 6,9.03969 6.435974,8.18404 C6.819467,7.43139 7.43139,6.819467 8.18404,6.435974 C9.03969,6 10.15979,6 12.4,6 L27.6,6 C29.8402,6 30.9603,6 31.816,6.435974 C32.5686,6.819467 33.1805,7.43139 33.564,8.18404 C34,9.03969 34,10.15979 34,12.4 L34,22.0892 C34,24.9608 34,26.3967 33.5628,27.6643 C33.1761,28.7853 32.5451,29.8063 31.7153,30.6535 C30.7771,31.6115 29.4928,32.2536 26.9244,33.5378 L26,34 L26,30 L12.4,30 C10.15979,30 9.03969,30 8.18404,29.564 C7.43139,29.1805 6.819467,28.5686 6.435974,27.816 C6,26.9603 6,25.8402 6,23.6 L6,12.4 Z M26,18 C26,21.3137 23.3137,24 20,24 C16.6954,24 14.0148,21.3285 14.00006,18.0274 L14.00006,18 L26,18 Z" id="形状" fill="#FFFFFF"></path>
        </g>
    </g>
</svg>